<?xml version="1.0" encoding="UTF-8" standalone="no"?>
<svg
   inkscape:version="1.1 (c68e22c387, 2021-05-23)"
   sodipodi:docname="new_logo.svg"
   id="svg8"
   height="900"
   width="900"
   style="fill:none"
   version="1.1"
   xmlns:inkscape="http://www.inkscape.org/namespaces/inkscape"
   xmlns:sodipodi="http://sodipodi.sourceforge.net/DTD/sodipodi-0.dtd"
   xmlns="http://www.w3.org/2000/svg"
   xmlns:svg="http://www.w3.org/2000/svg"
   xmlns:rdf="http://www.w3.org/1999/02/22-rdf-syntax-ns#"
   xmlns:cc="http://creativecommons.org/ns#"
   xmlns:dc="http://purl.org/dc/elements/1.1/">
  <metadata
     id="metadata14">
    <rdf:RDF>
      <cc:Work
         rdf:about="">
        <dc:format>image/svg+xml</dc:format>
        <dc:type
           rdf:resource="http://purl.org/dc/dcmitype/StillImage" />
      </cc:Work>
    </rdf:RDF>
  </metadata>
  <defs
     id="defs12" />
  <sodipodi:namedview
     inkscape:current-layer="svg8"
     inkscape:window-maximized="1"
     inkscape:window-y="24"
     inkscape:window-x="0"
     inkscape:cy="449.60039"
     inkscape:cx="498.6834"
     inkscape:zoom="0.7640118"
     fit-margin-bottom="150"
     fit-margin-right="50"
     fit-margin-left="50"
     fit-margin-top="150"
     lock-margins="false"
     inkscape:pagecheckerboard="false"
     showgrid="false"
     id="namedview10"
     inkscape:window-height="1032"
     inkscape:window-width="1920"
     inkscape:pageshadow="2"
     inkscape:pageopacity="0"
     guidetolerance="10"
     gridtolerance="10"
     objecttolerance="10"
     borderopacity="1"
     bordercolor="#666666"
     pagecolor="#ffffff" />
  <path
     id="path2"
     d=""
     style="fill:none;stroke:#6a6a6a;stroke-width:15px;stroke-linecap:round;stroke-linejoin:round" />
  <path
     id="path4"
     d=""
     style="fill:none;stroke:#4a4a4a;stroke-width:15px;stroke-linecap:round;stroke-linejoin:round" />
  <g
     id="path6">
    <path
       style="color:#000000;fill:#000000;stroke-width:15px;stroke-linecap:square;-inkscape-stroke:none"
       d="m 270,210 v 0 60 h 60 v -60 h -60 m 15,15 v 0 h 30 v 30 h -30 v -15 h 30 m -45,90 v 0 h 60 v 180 60 H 270 V 345 h 45 V 555 H 285 V 360 h 15 v 180 m 90,-330 v 0 60 h 60 60 60 60 60 V 210 H 405 v 45 H 675 V 225 H 420 v 15 h 240 m -150,90 v 0 h 60 V 570 H 510 V 345 h 45 V 555 H 525 V 360 h 15 V 540 M 750,210 v 0 h 60 V 630 H 750 V 225 h 45 V 615 H 765 V 240 h 15 v 360 m 30,30 v 0 60 H 750 210 v -60 h 525 v 15 h 75 v 30 H 210 v -30 h 510 v 15 h 75 l -75,15 H 225 m 0,-15 v 0 H 795 M 210,270 v 0 -60 h -60 v 60 h 45 v -45 h -30 v 30 h 30 V 240 H 180 M 90,210 v 0 480 H 210 V 630 H 90 m 60,-360 v 0 H 90 v -60 h 45 v 45 h -30 v -45 h 15 v 15 h 15 l -15,15 v 0 m 15,15 v 0 l -15,-15 h -15 v -15 h 45 l -15,15 m 15,30 v 0 420 m 45,-45 v 0 h -30 v 30 h 30 v -15 h -15 m -45,15 v 0 -390 h -30 v 390 h 15 V 300 285"
       id="path301" />
    <path
       style="color:#000000;fill:#f4f4f4;stroke-linecap:square;-inkscape-stroke:none"
       d="m 82.5,202.5 v 7.5 67.5 345 15 60 h 60 15 45 15 532.5 67.5 v -15 -45 -7.5 -7.5 -420 H 750 742.5 v 15 405 h -525 -15 -45 v -345 h 45 15 V 270 202.5 h -75 -15 -30 z m 180,0 v 7.5 7.5 60 h 75 v -75 h -60 z m 120,0 v 7.5 67.5 h 67.5 60 60 60 67.5 v -75 h -300 z m -120,120 v 15 240 h 75 V 510 322.5 H 270 Z m 240,0 v 15 240 h 75 v -255 H 510 Z"
       id="path303" />
  </g>
</svg>
